<svg version="1.2" xmlns="http://www.w3.org/2000/svg" viewBox="0 0 291 293" width="291" height="293"><style>.a{fill:#39c2d8}.b{fill:#1f212b}.c{fill:#fff}</style><path fill-rule="evenodd" class="a" d="m147 287c-77.4 0-140-62.6-140-140 0-77.4 62.6-140 140-140 77.4 0 140 62.6 140 140 0 77.4-62.6 140-140 140z"/><path fill-rule="evenodd" class="b" d="m147 291c-79.4 0-144-64.6-144-144 0-79.4 64.6-144 144-144 79.4 0 144 64.6 144 144 0 79.4-64.6 144-144 144zm0-280c-75 0-136 61-136 136 0 75 61 136 136 136 75 0 136-61 136-136 0-75-61-136-136-136z"/><path fill-rule="evenodd" d="m209 43.9q-0.5 0-1-0.3c-2.6-1.5-5.2-2.9-7.9-4.2-1-0.5-1.4-1.7-0.9-2.7 0.5-1 1.7-1.4 2.7-0.9 2.7 1.3 5.5 2.8 8.1 4.4 1 0.6 1.3 1.8 0.7 2.7-0.4 0.7-1 1-1.7 1z"/><path fill-rule="evenodd" d="m221 52q-0.7 0-1.2-0.4-2-1.5-3.9-2.9c-0.9-0.6-1.2-1.9-0.5-2.8 0.6-0.9 1.8-1.1 2.8-0.5q2 1.5 4 3c0.9 0.7 1.1 1.9 0.4 2.8-0.4 0.5-1 0.8-1.6 0.8z"/><path fill-rule="evenodd" class="b" d="m147 271c-68.4 0-124-55.6-124-124 0-68.4 55.6-124 124-124 14.7 0 29 2.5 42.7 7.5 1 0.4 1.6 1.6 1.2 2.6-0.4 1.1-1.6 1.6-2.6 1.2-13.2-4.8-27.1-7.3-41.3-7.3-66.2 0-120 53.8-120 120 0 66.2 53.8 120 120 120 66.2 0 120-53.8 120-120 0-33.8-14.3-66.1-39.3-88.9-0.9-0.7-0.9-2-0.2-2.8 0.8-0.8 2-0.9 2.8-0.1 25.9 23.5 40.7 56.9 40.7 91.8 0 68.4-55.6 124-124 124z"/><path fill-rule="evenodd" class="c" d="m180.3 162.5c-5.3 5.7-12.6 8.6-16 8.6-4 0-6.2-2.4-6.6-6.1q-0.2-2.1 0.1-4.2c1.4-8.1 4.4-13.2 4.2-14.8-0.1-0.4-0.3-0.6-0.7-0.6-2.5 0-11.4 9.1-12.7 15.2l-1.1 4.9c-0.7 3.4-4 5.6-6.4 5.6-1.1 0-1.9-0.5-2.1-1.7q0-0.9 0.2-1.7l0.5-2.6c-4.8 3.6-10 6.1-12.4 6.1-3.3 0-5.2-1.8-5.9-4.5-2.1 2.9-5 4.5-8.1 4.5-4 0-7.7-2.7-9.6-6.5-2.6 2.9-5.6 5.8-9.3 8.1-5.4 3.4-11.5 6.2-18.6 6.2-6.7 0-12.3-3.5-15.4-6.4-4.6-4.3-7-10.8-7.7-16.6-2.3-18.5 9-42.7 26.4-53.3 4-2.5 8.5-3.7 12.5-3.7 8.4 0 14.7 6 15.5 13.2 0.8 6.4-1.8 12-8.9 15.6-3.7 1.8-5.5 1.7-6 0.9-0.4-0.6-0.2-1.6 0.5-2.2 6.8-5.7 6.9-10.3 6.1-16.8-0.5-4.1-3.3-6.8-6.4-6.8-13.2 0-32.1 29.6-29.5 51.2 1 8.4 6.2 18.2 16.8 18.2 3.5 0 7.2-1 10.5-2.7 5.8-3 9.1-5.3 12.4-9.1-0.8-10 7.8-22.5 20.5-22.5 5.5 0 10.1 2.2 10.6 6.6 0.7 5.5-4 6.6-5.8 6.6-1.5 0-4-0.4-4.2-1.8-0.2-1.6 3.4-0.7 2.9-4.3-0.2-2.2-2.5-2.9-4.7-2.9-8 0-12.3 11-11.5 17.9 0.4 3.1 2 6.2 4.8 6.2 2.3 0 5.7-3.3 7-8.2 0.8-3.3 3.9-5.5 6.2-5.5 1.2 0 2.1 0.5 2.2 1.7q0.1 0.7-0.1 1.7c-0.3 1.4-1.4 6.2-1.3 7.2 0 0.9 0.5 2.1 2 2.1 1.2 0 5.6-2.4 9.6-6 1.3-6.6 2.9-14.7 3-15.4 0.5-2.6 1.4-5.4 6.8-5.4 1.1 0 2 0.6 2.1 1.9q0.1 0.7-0.1 1.7l-1.5 6.8c4.7-6.3 12.1-10.9 16.5-10.9 1.9 0 3.3 0.9 3.6 2.9 0.1 1.1-0.2 3-0.9 5.1-1.6 4.3-3.4 10.8-4.5 16.4-0.3 1.2 0.1 3 2.3 3 1.7 0 7.3-2.1 11.8-8.1q-0.1-1.2-0.1-2.5c0-4.7 0.3-8.4 1.2-11.2 0.9-2.9 4.5-5.6 7-5.6 1.2 0 2.1 0.6 2.1 2 0 0.4-0.1 1-0.4 1.5-1.6 4.9-2.5 9.4-2.5 14 0 2.5 0.6 6.6 1.1 8.7 0.1 0.4 0.2 0.9 0.7 0.9 0.7 0 5.9-5.1 9.7-11.3-3.4-2.1-5.2-6-5.2-10.7 0-8 4.7-12.1 9.3-12.1 3.7 0 7 2.6 7 8 0 3.3-1.3 7-3.2 10.7 0 0 0.8 0.1 1.1 0.1 2.9 0 5.1-1.3 6.3-2.8 0.5-0.6 1-1.1 1.5-1.4 3.7-4.4 9.1-7.6 15.5-7.6 5.4 0 10 2.1 10.6 6.5 0.7 5.6-4.2 6.7-5.8 6.7-1.7 0-4.2-0.4-4.3-1.8-0.2-1.5 3.4-0.7 3-4.1-0.3-2.3-2.6-3.1-4.8-3.1-7.4 0-12.4 9.8-11.5 17.8 0.4 3.2 1.9 6.3 4.8 6.3 2.3 0 5.7-3.3 7-8.2 0.8-3.2 4-5.5 6.3-5.5 1.1 0 2 0.5 2.2 1.8 0.1 0.7-0.2 2.1-1.4 7.3-0.5 2.3-0.6 4.1-0.4 5.7 0.3 3.2 1.8 5.3 3.2 6.5 0.5 0.5 0.8 1 0.8 1.3 0.1 0.9-0.6 1.7-1.7 1.7-0.3 0-0.7 0-1.1-0.2-5.7-2.3-8-6.2-8.7-9.9-2.2 2.8-5.1 4.3-8.1 4.3-5 0-10-4.4-10.7-10.1-0.3-2.4 0-4.9 0.8-7.4-2.1 1.2-4.3 1.9-6.3 1.9-0.6 0-1.2 0-1.8-0.1-5 7.2-10.2 12.2-14.1 14.4-1.7 0.9-3.2 1.3-4.3 1.3-0.9 0-1.9-0.2-2.4-0.9-1-1.8-1.7-4.5-2-7.7zm17.9-23.6c0 3.1 1.5 6.4 3.5 8.5 0.8-2.1 1.2-4.2 1.2-6.4 0-3.9-1.5-5.7-2.7-5.7-1.4 0-2 2-2 3.6z"/></svg>