<svg xmlns="http://www.w3.org/2000/svg"  viewBox="0 0 48 48" width="48px" height="48px"><path fill="#febf10" d="M39.9,42.7c0,1.4-1.1,2.6-2.6,2.6l-19.1,0.2l-9.3-1.2l-1.3-9.3V10.6l0.8-7.2h3.4h18.8l10.1,9l0.4,1.9v10.4 l-1.6,5.8L39.9,42.7z"/><polygon fill="#d4e2a9" points="32.7,37.9 19.7,38.4 16.2,36.7 16.6,22.6 30.9,22.2"/><path fill="#010101" d="M41.6,16c0-0.7,0-1.5,0-2.2c0.1-2.3-2.3-4.1-4.1-5.2c-0.3-0.2-0.6-0.5-1-0.7l-0.1-0.1	c-0.8-0.7-1.6-1.4-2.3-2.2c-0.6-0.7-1.2-1.2-1.8-1.7c-0.3-0.2-0.6-0.4-0.8-0.6c-0.1-0.1-0.3-0.2-0.4-0.3C31.1,3,31,3,31,3	c-0.1-0.1-0.2-0.2-0.4-0.3c-0.3-0.1-0.6-0.1-0.7-0.1c-0.6,0-1.2,0-1.7,0c-0.2,0-0.5,0-0.7,0c-0.3,0-0.5,0-0.8,0l-0.4,0	c-0.8,0-1.6,0-2.4,0c-0.3,0-0.6,0-1,0h-9.3c0,0,0,0,0,0l-1.8,0c-1,0-2.2,0-2.7,0c-0.1,0-0.5,0-0.8,0.3C8.2,3,8.2,3.2,8.2,3.4	c0,0,0,0.1,0,0.1c-0.7,1.6-1,3-1,4.6l0,0.8c0,0.6,0,1.3,0,1.9c0,0.3,0,0.6,0.1,0.8c0,0.3,0.1,0.6,0.1,0.9c0,0.4,0,0.8,0.1,1.2	c0,0.2,0,0.3,0.1,0.5c0,0.5,0,1,0,1.5c0,0.2,0,0.4,0,0.7l0,4.1c0,0.2,0,0.5,0,0.7c0,0.2,0,0.5-0.1,0.7c0,0.1,0,0.2-0.1,0.4	c-0.2,1.1-0.1,2.2-0.1,3.2c0,0.3,0,0.7,0,1v2.8c0,0.4,0,0.8,0,1.2c0,1.6,0,3.2,0.2,4.9C7.7,37.7,8,40.2,8,42.8	c0,0.3,0.1,0.5,0.2,0.7c0,0.1,0.1,0.2,0.1,0.3l0,0.2c0,0.2,0.1,0.4,0.2,0.6c0.5,0.9,1.5,1,2.3,1.1c0.2,0,0.3,0,0.5,0	c0.2,0,0.4,0,0.6,0.1c0.2,0,0.5,0,0.7,0.1c1.5,0.3,3,0.4,4.5,0.4c1.1,0,2.1,0,3.1-0.1c1,0,2.1-0.1,3.1-0.1h12.9l0.3,0	c0.4,0,0.7,0,1.1-0.1c0.5-0.1,0.9-0.4,1.4-0.7c0.1-0.1,0.2-0.1,0.3-0.2c0.3-0.2,0.5-0.3,0.8-0.7c0.5-0.7,0.5-1.5,0.6-2.2l0-0.3	c0.1-1.2,0-2.4-0.1-3.6c-0.3-3.4-0.2-6.1,0.3-8.6c0.1-0.3,0.1-0.5,0.1-0.8c0-0.2,0-0.4,0.1-0.6c0-0.2,0.1-0.3,0.1-0.5	c0-0.2,0.1-0.4,0.1-0.5c0.3-1.5,0.4-3.1,0.4-4.7c0-1.2,0-2.4,0-3.6l0-1.9L41.6,16z M31,4.2c0.3,0.1,0.5,0.3,0.7,0.5	c0.6,0.5,1.2,1,1.7,1.6c0.7,0.8,1.5,1.5,2.4,2.3L36,8.6c0.3,0.3,0.7,0.6,1.1,0.8c1.5,1,3.5,2.4,3.6,4.1c-1.4-0.5-3-0.5-4.5-0.4	c-0.5,0-1,0-1.4,0c-1.5,0-2.8-0.1-3.9-0.5l0,0c0-0.1,0-0.2,0-0.3c0-0.1,0-0.2,0-0.3c0-0.5,0-0.9,0.1-1.4c0-0.5,0.1-1,0.1-1.4L31,4.2	C30.9,4.1,31,4.2,31,4.2z M40.6,22.6c0,1.5-0.1,3-0.4,4.5c0,0.2-0.1,0.3-0.1,0.5c0,0.2-0.1,0.3-0.1,0.5c0,0.2-0.1,0.5-0.1,0.7	c0,0.2-0.1,0.5-0.1,0.7c-0.5,2.6-0.6,5.4-0.3,8.9c0.1,1.1,0.2,2.3,0.1,3.4l0,0.3c0,0.6-0.1,1.2-0.4,1.7c-0.1,0.2-0.3,0.3-0.5,0.4	c-0.1,0.1-0.2,0.1-0.4,0.3c-0.3,0.2-0.6,0.4-0.9,0.5c-0.3,0.1-0.5,0.1-0.9,0l-13.2,0c-1,0-2.1,0-3.1,0.1c-2.5,0.1-5,0.2-7.4-0.3	c-0.3-0.1-0.5-0.1-0.8-0.1c-0.2,0-0.4,0-0.6-0.1c-0.2,0-0.3,0-0.5-0.1c-0.8-0.1-1.3-0.1-1.5-0.5c-0.1-0.1-0.1-0.2-0.1-0.3l0-0.2	c0-0.2-0.1-0.3-0.1-0.5C9.1,42.9,9,42.8,9,42.7c-0.1-2.6-0.3-5.1-0.6-7.5c-0.2-1.6-0.2-3.2-0.2-4.7c0-0.4,0-0.8,0-1.3v-2.8	c0-0.3,0-0.7,0-1c0-1,0-2.1,0.1-3.1c0-0.1,0-0.2,0.1-0.3c0-0.3,0.1-0.6,0.1-0.9c0-0.2,0-0.5,0-0.7l0-4.1c0-0.2,0-0.4,0-0.6	c0-0.5,0-1.1,0-1.6c0-0.2,0-0.3-0.1-0.5c0-0.4-0.1-0.7-0.1-1c0-0.4,0-0.7-0.1-1c0-0.2-0.1-0.5-0.1-0.7c0-0.6,0-1.3,0-1.9l0-0.9	c0-1.5,0.3-2.7,0.9-4.3c0.1-0.1,0.1-0.3,0.1-0.4c0.5,0,1.6,0,2.6,0l11,0c0.3,0,0.6,0,1,0c0.8,0,1.6,0,2.3,0l0.4,0c0.3,0,0.6,0,0.9,0	c0.2,0,0.5,0,0.7,0c0.5,0,1.1,0,1.6,0c0.1,0,0.1,0,0.2,0c0,0,0,0.1,0,0.1v5.5c0,0.5,0,0.9-0.1,1.4c0,0.5-0.1,1-0.1,1.5	c0,0.1,0,0.2,0,0.3c0,0.2,0,0.5,0,0.7c0.1,0.5,0.4,0.6,0.6,0.6l0.1,0c1.3,0.4,2.6,0.5,4.2,0.5c0.5,0,0.9,0,1.5,0	c1.5,0,3.2,0,4.5,0.5c0,0.5,0,0.9,0,1.4l0,1l0,1.9C40.6,20.2,40.6,21.4,40.6,22.6z"/><path fill="#010101" d="M22.7,39c-1.3,0-2.7-0.1-3.9-0.4c-0.6-0.2-1.5-0.5-2.3-1.1c-0.4-0.3-0.7-0.6-0.8-1.2c-0.1-0.4,0-0.8,0-1.1 c0-0.2,0-0.3,0-0.5c0-0.9,0.1-1.8,0.2-2.7c0.1-0.7,0.1-1.4,0.1-2.1c0-1.6,0-3.2,0-4.7c0-0.2,0-0.5,0-0.9c0-0.7,0.1-1.5,0-2 c0-0.1,0-0.3,0.1-0.4c0.1-0.1,0.2-0.2,0.4-0.2c0.5,0,1,0,1.4,0c1.1,0,2.2,0,3.3,0c1.6,0.1,3.2,0.1,4.8,0.1c1.1,0,2.1,0,3.2,0 c0.1,0,0.2,0,0.3,0c0.5,0,1,0,1.5,0.2c0.4,0.2,0.6,0.8,0.7,1.6c0.1,1.7,0.3,3.5,0.5,5.1l0.1,0.9c0.1,0.9,0.3,1.8,0.5,2.7 c0.3,1.5,0.7,3,0.5,4.6c-0.1,0.9-0.7,1.1-1.1,1.2c-1,0.3-2,0.4-3,0.5l-0.7,0.1c-1.3,0.1-2.7,0.2-4,0.2L24,39 C23.5,39,23.1,39,22.7,39z M17.1,22.7c0,0.5,0,1.1,0,1.6c0,0.3,0,0.6,0,0.8c0,1.5,0,3.2,0,4.7c0,0.7-0.1,1.4-0.1,2.2 c-0.1,0.9-0.2,1.8-0.1,2.6c0,0.2,0,0.4,0,0.6c0,0.3,0,0.7,0,0.9c0,0.2,0.1,0.3,0.4,0.5c0.5,0.4,1.1,0.7,2,1 c1.5,0.4,3.3,0.4,4.9,0.4l0.6,0c1.3,0,2.6-0.1,3.9-0.2l0.7-0.1c1-0.1,2-0.2,2.8-0.5c0.4-0.1,0.4-0.2,0.4-0.3 c0.1-1.5-0.2-2.8-0.5-4.3c-0.2-0.9-0.4-1.8-0.5-2.8l-0.1-0.9c-0.2-1.7-0.4-3.4-0.5-5.2c0-0.5-0.1-0.8-0.2-0.8 c-0.2-0.1-0.6-0.1-1-0.1c-0.1,0-0.2,0-0.4,0c-1,0-2.1,0-3.2,0c-1.6,0-3.2,0-4.8-0.1c-1.2,0-2.2,0-3.3,0 C17.7,22.7,17.4,22.7,17.1,22.7z"/><path fill="#010101" d="M29.1,34.6c-0.3,0-0.5,0-0.8,0c-0.5,0-1,0-1.5,0l-5.9,0c-0.7,0-1.4,0-2,0v0c0,0,0,0,0,0v0c0,0,0,0,0,0 c-0.3,0-0.7,0-0.8-0.3c0-0.1-0.1-0.1-0.1-0.2c0,0,0-0.1-0.1-0.1c-0.1-0.2-0.1-0.5-0.1-0.7v-0.7c0-0.3,0-0.6,0-0.9 c0-0.4,0-0.8,0-1.2l0-4.7c0-0.2,0.1-0.4,0.3-0.4c0.3-0.1,0.7-0.1,1.2,0c0.2,0,0.3,0,0.4,0c0.5,0,1,0,1.5,0c0.3,0,0.7,0.1,1,0.1 l0.2,0c0.4,0.1,0.8,0.1,1.3,0.1c1.3,0,2.7,0,4,0c0.7,0,1.3,0,2,0l0.2,0c0.1,0,0.2,0,0.3,0c0.1,0,0.3,0,0.5,0.1 c0.2,0.1,0.3,0.3,0.3,0.7c0,0.1,0,0.2,0,0.4l0,0.4c0,0.2,0,0.4-0.1,0.7c0,0.2-0.1,0.5-0.1,0.7c0,0.2-0.1,0.3-0.1,0.5l0,0.1 c0,0.3-0.1,0.6-0.1,0.9c0,0.2,0,0.4,0,0.7l0,0.4c0,0.5,0,1,0,1.5c0,0.4,0.1,0.7,0.1,1.1c0,0.2,0.1,0.5-0.2,0.8 c-0.1,0.1-0.2,0.1-0.3,0.1c-0.1,0-0.2,0-0.3,0c0,0-0.1,0-0.1,0c-0.1,0-0.1,0-0.2,0C29.4,34.6,29.2,34.6,29.1,34.6z M26.8,33.6 c0.6,0,1.1,0,1.6,0c0.3,0,0.7,0,1,0c0.1,0,0.1,0,0.2,0c0-0.3-0.1-0.6-0.1-0.9c0-0.5,0-1,0-1.6l0-0.3c0-0.3,0-0.5,0-0.8 c0-0.3,0.1-0.7,0.1-1l0-0.1c0-0.2,0.1-0.4,0.1-0.6c0-0.2,0.1-0.4,0.1-0.6c0-0.2,0-0.4,0-0.6l0-0.3c0-0.1,0-0.1,0-0.2c0,0,0,0,0,0 l-0.2,0c-0.7,0-1.3,0-2,0c-1.3,0-2.7,0-4,0c-0.5,0-1,0-1.4-0.1l-0.2,0c-0.3-0.1-0.6-0.1-0.9-0.1c-0.5,0-1,0-1.4,0 c-0.2,0-0.3,0-0.5-0.1c-0.1,0-0.2,0-0.3,0l0,4.2c0,0.4,0,0.8,0,1.3c0,0.3,0,0.6,0,0.8v0.7c0,0.1,0,0.3,0,0.4c0,0,0,0,0,0 c0,0,0,0,0.1,0c0,0,0,0,0,0l0,0h0c0.7,0,1.3,0,2,0L26.8,33.6C26.7,33.6,26.8,33.6,26.8,33.6z"/></svg>