<svg version="1.2" xmlns="http://www.w3.org/2000/svg" viewBox="0 0 349 336" width="349" height="336"><style>.a{fill:#1e88e5}</style><path class="a" d="m295 60h-70.9l38-37.9c3.9-3.9 3.9-10.3 0-14.2-3.9-3.9-10.3-3.9-14.2 0l-52 52.1h-51.8l-52-52.1c-3.9-3.9-10.3-3.9-14.2 0-3.9 3.9-3.9 10.3 0 14.2l38 37.9h-60.9c-30.3 0-55 24.7-55 55v150c0 30.3 24.7 55 55 55h20c0 8.3 6.7 15 15 15 8.3 0 15-6.7 15-15h140c0 8.3 6.7 15 15 15 8.3 0 15-6.7 15-15h20c30.3 0 55-24.7 55-55v-150c0-30.3-24.7-55-55-55zm25 205c0 13.8-11.2 25-25 25h-240c-13.8 0-25-11.2-25-25v-150c0-13.8 11.2-25 25-25h240c13.8 0 25 11.2 25 25z"/><path fill-rule="evenodd" class="a" d="m212.1 161.9l8.7-26.1 67.1 22.4-8.7 26z"/><path fill-rule="evenodd" class="a" d="m72.1 158.1l67.1-22.3 8.7 26.1-67.1 22.3z"/><path class="a" d="m210.3 215.3c-1.9 5.9-6.4 8.9-13.2 8.9-0.8-0.1-1.4-0.1-2.4-0.2-0.2 0-0.5-0.2-0.7 0-3.4-0.5-7.4-1.8-10.6-4.7-3.6-2.6-8-7.4-9.4-14.8 0 0-2.9 11.8-9 14.9-0.8 0.5-1.6 1.2-2.5 1.7l-0.4 0.2c-3 1.7-6.8 2.7-10.9 2.8-5.6-0.5-9.4-3.3-11.3-8.2l-0.7-1.7-14.2 6.6 0.5 1.4c4.6 11.2 14.6 17.7 27.4 17.7 9.2 0 16.6-3.1 22.1-9.1 5.5 6 12.8 9.1 22.1 9.1 18.5 0 25.5-12.9 27.6-18.5l0.5-1.2-14.3-6.6z"/></svg>