<svg version="1.2" xmlns="http://www.w3.org/2000/svg" viewBox="0 0 293 293" width="293" height="293"><style>.a{fill:#ddda45}.b{fill:#e7762a}.c{fill:#e02826}.d{fill:#3d9c46}.e{fill:#eeeeec}.f{fill:#304a96}.g{fill:#fff}</style><path class="a" d="m147.5 33.4c0-11.4 0-15.9 0-33.4 60.4-0.1 104.4 36.8 125 72.4-25.9 15-28.7 16.7-28.7 16.7-19-32.5-55.1-55.3-96.3-55.7z"/><path class="a" d="m50.2 202.2v-109.9l95.1 54.9-0.1 109.4c-31.9-17.8-95-54.4-95-54.4z"/><path class="b" d="m245 202.1c20.7-37.5 17.4-79.6-0.1-111 0.3-0.6 19.2-11.1 28.7-16.7 29.4 53.7 20.9 108.4 0.1 144.4-11.6-6.6-17.8-10.2-28.7-16.7z"/><path class="c" d="m18.8 74.7l28.8 16.2c-20.2 40.5-18.3 71.1-0.2 111.2l-28.7 16.4c-28.9-52-20.7-107.2 0.1-143.8z"/><path class="c" d="m147.5 147.2c32.2-18.8 94.9-54.5 94.9-54.5-0.4 73.4 0 4.7-0.1 109.6-31.2 18.5-60.3 34.9-94.8 54.3-0.2-23 0-26.7 0-109.4z"/><path class="d" d="m20.1 72.3c22.2-40.2 71.4-72.4 125-72.3v33.4c-45.8 1.6-77.5 24.9-96.3 55.5-10.9-6.3-16.3-9.5-28.7-16.6z"/><path class="e" d="m48.6 204.1c21.1 35.2 58.4 55.3 96.5 55.8l0.2 32.8c-50.2 0.3-99.1-26.9-125.3-72z"/><path class="f" d="m51.7 90.4l94.6-54.5 94.8 54.7-94.7 54.5z"/><path class="f" d="m147.4 292.7c-0.1-12.7 0-21.5 0.1-32.8 45.1 0 82.5-30.4 96.2-55.7 12.4 7.2 17.1 9.9 28.8 16.6-40.5 69.5-114.7 71.9-125.1 71.9z"/><path class="g" d="m123.6 216.3c0-6.5-0.1-7.5-0.7-8.3-0.4-0.4-8.9-5.3-18.8-10.7-19.7-10.7-21.6-11.8-24.2-14.4-3.2-3.2-3.2-3.3-3.4-19.4-0.1-13.8-0.1-14.3 0.7-14.9 1.7-1.2 1.4-1.3 25.5 12 21.1 11.6 20 11.1 20.5 10.3 0.2-0.3 0.4-3.9 0.4-7.9 0-6.4-0.1-7.5-0.7-8.2-0.9-1-39.7-22.5-42.8-23.7-7.1-2.8-11.5-1.6-13.9 3.6-1.4 3.3-1.7 6.8-1.7 22.3 0.1 20.2 0.9 25.6 5.1 32.9 2.1 3.5 7.8 9.3 11.6 11.8 1.5 1 11.5 6.5 22.1 12.3 14.1 7.7 19.4 10.4 19.8 10.1 0.4-0.3 0.5-2.4 0.5-7.8z"/><path class="g" d="m129.7 120.2c0.9-0.4 2-1.3 2.3-1.8 0.4-0.5 3.6-6.6 7.2-13.5 3.6-7 6.7-12.6 6.8-12.6 0.2 0 3.3 5.8 7 12.9 4.5 8.9 7 13.3 8 14.1 2.7 2.5 7.9 2.7 11.1 0.6 1.5-1.1 2.6-3 13.2-24.2 6.4-12.7 11.5-23.3 11.4-23.6-0.2-0.5-1.5-0.6-7-0.6-3.7 0-7 0.1-7.3 0.3-0.2 0.2-3.8 7.1-8 15.4-4.2 8.5-7.7 15-7.9 14.8-0.2-0.2-3.2-5.9-6.7-12.6-3.5-6.8-6.8-12.9-7.4-13.7-2.8-3.8-9.5-3.9-12.6-0.2-0.5 0.7-4 7-7.6 14-3.7 7-6.8 12.8-6.9 12.8-0.2 0-3.5-6.6-7.5-14.7-4-8.1-7.5-15-7.9-15.4-0.5-0.6-1.4-0.7-7-0.7-3.6 0-6.8 0.2-7.1 0.4-0.7 0.4 2.6 7.5 15.1 32.9 6.6 13.6 7.5 14.9 10.5 16 2.1 0.8 6.1 0.5 8.3-0.6z"/><path class="g" d="m201.8 137.7q-0.4 0.1-0.9 0.2c-1.6 0.3-4 2.8-5.2 5.2-0.4 1-5 13.5-10 27.8-5 14.3-11.3 32.2-14 39.7-2.7 7.5-4.7 13.8-4.6 14 0.3 0.4 3.8-1.3 9.2-4.5l2.5-1.5 3.7-10.9 3.7-10.8 13.4-7.4c7.3-4 13.4-7.3 13.6-7.3 0.1 0 1.6 2.4 3.2 5.4 1.7 3 3.4 5.8 3.8 6.3l0.7 0.9 4.7-2.7c2.6-1.5 4.8-3 4.9-3.4 0-0.3-4.1-8.6-9.2-18.3-5.1-9.7-11-20.7-13-24.6-3.5-6.6-4.6-8.2-6.5-8.1zm-1.9 20.4c0.6 0.2 7.4 12.8 7.2 13.2-0.3 0.4-12.7 7.2-14.1 7.8-0.5 0.2 0.1-2.1 2.9-10.4 2-5.9 3.8-10.6 4-10.6z"/></svg>