<svg version="1.2" xmlns="http://www.w3.org/2000/svg" viewBox="0 0 80 80" width="80" height="80">
	<title>googlekeep</title>
	<style>
		.s0 { fill: #f9b621 } 
		.s1 { fill: #fef6aa } 
		.s2 { fill: #fefdef } 
		.s3 { fill: #1f212b } 
	</style>
	<path class="s0" d="m54.5 72h-32.5c-7.2 0-13-5.8-13-13v-38c0-7.2 5.8-13 13-13h38c7.2 0 13 5.8 13 13v32.5z"/>
	<path class="s1" d="m54.5 71.5v-14c0-2.2 1.8-4 4-4h14"/>
	<path class="s2" d="m41 18.5c-8 0-14.5 6.5-14.5 14.5 0 5.3 2.8 9.9 7 12.4v13.1h3v3h9v-3h3v-13.1c4.2-2.5 7-7.1 7-12.4 0-8-6.5-14.5-14.5-14.5zm4.5 37h-9v-4h9zm0-11.9v4.9h-9v-4.9c-4.1-1.8-7-5.8-7-10.6 0-6.4 5.1-11.5 11.5-11.5 6.4 0 11.5 5.1 11.5 11.5 0 4.8-2.9 8.8-7 10.6z"/>
	<path class="s3" d="m54.5 72c-0.3 0-0.5-0.2-0.5-0.5v-14c0-2.5 2-4.5 4.5-4.5h14c0.3 0 0.5 0.2 0.5 0.5 0 0.3-0.2 0.5-0.5 0.5h-14c-1.9 0-3.5 1.6-3.5 3.5v14c0 0.3-0.2 0.5-0.5 0.5z"/>
	<path class="s3" d="m54.5 73h-32.5c-7.7 0-14-6.3-14-14v-38c0-7.7 6.3-14 14-14h38c7.7 0 14 6.3 14 14v32.5q0 0.4-0.3 0.7l-18.5 18.5q-0.3 0.3-0.7 0.3zm-32.5-64c-6.6 0-12 5.4-12 12v38c0 6.6 5.4 12 12 12h32.1l17.9-17.9v-32.1c0-6.6-5.4-12-12-12z"/>
	<path class="s3" d="m50.5 68h-26c-6.3 0-11.5-5.2-11.5-11.5v-33c0-6.7 4.4-11.5 10.5-11.5h35c0.3 0 0.5 0.2 0.5 0.5 0 0.3-0.2 0.5-0.5 0.5h-35c-5.5 0-9.5 4.4-9.5 10.5v33c0 5.8 4.7 10.5 10.5 10.5h26c0.3 0 0.5 0.2 0.5 0.5 0 0.3-0.2 0.5-0.5 0.5z"/>
	<path class="s3" d="m68.5 30c-0.3 0-0.5-0.2-0.5-0.5v-2c0-0.3 0.2-0.5 0.5-0.5 0.3 0 0.5 0.2 0.5 0.5v2c0 0.3-0.2 0.5-0.5 0.5z"/>
	<path class="s3" d="m68.5 37c-0.3 0-0.5-0.2-0.5-0.5v-4c0-0.3 0.2-0.5 0.5-0.5 0.3 0 0.5 0.2 0.5 0.5v4c0 0.3-0.2 0.5-0.5 0.5z"/>
	<path class="s3" d="m68.5 50c-0.3 0-0.5-0.2-0.5-0.5v-10c0-0.3 0.2-0.5 0.5-0.5 0.3 0 0.5 0.2 0.5 0.5v10c0 0.3-0.2 0.5-0.5 0.5z"/>
	<path class="s3" d="m45.5 62h-9c-0.3 0-0.5-0.2-0.5-0.5v-2.5h-2.5c-0.3 0-0.5-0.2-0.5-0.5v-12.8c-4.4-2.8-7-7.5-7-12.7 0-8.3 6.7-15 15-15 8.3 0 15 6.7 15 15 0 5.2-2.6 9.9-7 12.7v12.8c0 0.3-0.2 0.5-0.5 0.5h-2.5v2.5c0 0.3-0.2 0.5-0.5 0.5zm-8.5-1h8v-2.5c0-0.3 0.2-0.5 0.5-0.5h2.5v-12.6c0-0.2 0.1-0.3 0.2-0.4 4.3-2.6 6.8-7.1 6.8-12 0-7.7-6.3-14-14-14-7.7 0-14 6.3-14 14 0 4.9 2.5 9.4 6.8 12 0.1 0.1 0.2 0.2 0.2 0.4v12.6h2.5c0.3 0 0.5 0.2 0.5 0.5zm8.5-5h-9c-0.3 0-0.5-0.2-0.5-0.5v-4c0-0.3 0.2-0.5 0.5-0.5h9c0.3 0 0.5 0.2 0.5 0.5v4c0 0.3-0.2 0.5-0.5 0.5zm-8.5-1h8v-3h-8zm8.5-6h-9c-0.3 0-0.5-0.2-0.5-0.5v-4.6c-4.3-1.9-7-6.2-7-10.9 0-6.6 5.4-12 12-12 6.6 0 12 5.4 12 12 0 4.7-2.7 9-7 10.9v4.6c0 0.3-0.2 0.5-0.5 0.5zm-8.5-1h8v-4.4c0-0.2 0.1-0.4 0.3-0.5 4.1-1.7 6.7-5.7 6.7-10.1 0-6.1-4.9-11-11-11-6.1 0-11 4.9-11 11 0 4.4 2.6 8.4 6.7 10.1 0.2 0.1 0.3 0.3 0.3 0.5z"/>
</svg>