<svg version="1.2" xmlns="http://www.w3.org/2000/svg" viewBox="0 0 185 185" width="185" height="185"><defs><linearGradient id="P" gradientUnits="userSpaceOnUse"/><radialGradient id="g1" cx="0" cy="0" r="1" href="#P" gradientTransform="matrix(224.495,0,0,224.495,68.9,182.175)"><stop stop-color="#fd5"/><stop offset=".33" stop-color="#ff543f"/><stop offset=".35" stop-color="#fc5245"/><stop offset=".5" stop-color="#e64771"/><stop offset=".64" stop-color="#d53e91"/><stop offset=".76" stop-color="#cc39a4"/><stop offset=".84" stop-color="#c837ab"/></radialGradient><radialGradient id="g2" cx="0" cy="0" r="1" href="#P" gradientTransform="matrix(149.065,0,0,149.065,30.93,-0.298)"><stop stop-color="#4168c9" stop-opacity="1"/><stop offset="1" stop-color="#4168c9" stop-opacity="0"/></radialGradient></defs><style>.a{fill:url(#g1)}.b{fill:url(#g2)}.c{fill:#fff}</style><path class="a" d="m142.1 182h-100c-22 0.1-40-17.9-40.1-39.9v-100c-0.1-22 17.9-40 39.9-40.1h100c22-0.1 40 17.9 40 39.9l0.1 100c0.1 22-17.9 40-39.9 40.1z"/><path class="b" d="m142.1 182h-100c-22 0.1-40-17.9-40.1-39.9v-100c-0.1-22 17.9-40 39.9-40.1h100c22-0.1 40 17.9 40 39.9l0.1 100c0.1 22-17.9 40-39.9 40.1z"/><path class="c" d="m92 127c-19.3 0-35-15.7-35-35 0-19.3 15.7-35 35-35 19.3 0 35 15.7 35 35 0 19.3-15.7 35-35 35zm0-60c-13.8 0-25 11.2-25 25 0 13.8 11.2 25 25 25 13.8 0 25-11.2 25-25 0-13.8-11.2-25-25-25z"/><path fill-rule="evenodd" class="c" d="m129.5 62c-4.1 0-7.5-3.4-7.5-7.5 0-4.1 3.4-7.5 7.5-7.5 4.1 0 7.5 3.4 7.5 7.5 0 4.1-3.4 7.5-7.5 7.5z"/><path class="c" d="m122 157h-60c-19.3 0-35-15.7-35-35v-60c0-19.3 15.7-35 35-35h60c19.3 0 35 15.7 35 35v60c0 19.3-15.7 35-35 35zm-60-120c-13.8 0-25 11.2-25 25v60c0 13.8 11.2 25 25 25h60c13.8 0 25-11.2 25-25v-60c0-13.8-11.2-25-25-25z"/></svg>